<svg width="498" height="403" viewBox="0 0 498 403" fill="none"
     xmlns="http://www.w3.org/2000/svg">
    <g filter="url(#filter0_d_336_1755)">
        <path d="M173 163.5C219.644 163.5 261.858 167.471 292.398 173.887C307.673 177.095 320 180.91 328.497 185.13C332.746 187.24 336.011 189.439 338.208 191.694C340.403 193.948 341.5 196.222 341.5 198.5C341.5 200.778 340.403 203.052 338.208 205.306C336.011 207.561 332.746 209.76 328.497 211.87C320 216.09 307.673 219.905 292.398 223.113C261.858 229.529 219.644 233.5 173 233.5C126.356 233.5 84.1417 229.529 53.6016 223.113C38.3275 219.905 25.9997 216.09 17.5029 211.87C13.2539 209.76 9.98872 207.561 7.79199 205.306C5.59696 203.052 4.5 200.778 4.5 198.5C4.5 196.222 5.59696 193.948 7.79199 191.694C9.98872 189.439 13.2539 187.24 17.5029 185.13C25.9997 180.91 38.3275 177.095 53.6016 173.887C84.1417 167.471 126.356 163.5 173 163.5Z"
              stroke="black"/>
        <path d="M173 188.5C219.644 188.5 261.858 192.471 292.398 198.887C307.673 202.095 320 205.91 328.497 210.13C332.746 212.24 336.011 214.439 338.208 216.694C340.403 218.948 341.5 221.222 341.5 223.5C341.5 225.778 340.403 228.052 338.208 230.306C336.011 232.561 332.746 234.76 328.497 236.87C320 241.09 307.673 244.905 292.398 248.113C261.858 254.529 219.644 258.5 173 258.5C126.356 258.5 84.1417 254.529 53.6016 248.113C38.3275 244.905 25.9997 241.09 17.5029 236.87C13.2539 234.76 9.98872 232.561 7.79199 230.306C5.59696 228.052 4.5 225.778 4.5 223.5C4.5 221.222 5.59696 218.948 7.79199 216.694C9.98872 214.439 13.2539 212.24 17.5029 210.13C25.9997 205.91 38.3275 202.095 53.6016 198.887C84.1417 192.471 126.356 188.5 173 188.5Z"
              stroke="black"/>
        <path d="M173 213.5C219.644 213.5 261.858 217.471 292.398 223.887C307.673 227.095 320 230.91 328.497 235.13C332.746 237.24 336.011 239.439 338.208 241.694C340.403 243.948 341.5 246.222 341.5 248.5C341.5 250.778 340.403 253.052 338.208 255.306C336.011 257.561 332.746 259.76 328.497 261.87C320 266.09 307.673 269.905 292.398 273.113C261.858 279.529 219.644 283.5 173 283.5C126.356 283.5 84.1417 279.529 53.6016 273.113C38.3275 269.905 25.9997 266.09 17.5029 261.87C13.2539 259.76 9.98872 257.561 7.79199 255.306C5.59696 253.052 4.5 250.778 4.5 248.5C4.5 246.222 5.59696 243.948 7.79199 241.694C9.98872 239.439 13.2539 237.24 17.5029 235.13C25.9997 230.91 38.3275 227.095 53.6016 223.887C84.1417 217.471 126.356 213.5 173 213.5Z"
              stroke="black"/>
        <path d="M256.343 66.6289L256.511 67.5342L257.179 66.9004L304.312 22.1758L276.341 80.8232L275.944 81.6543L276.857 81.5342L341.277 73.0547L284.177 104.061L283.367 104.5L284.177 104.939L341.277 135.944L276.857 127.466L275.944 127.346L276.341 128.177L304.312 186.823L257.179 142.1L256.511 141.466L256.343 142.371L244.5 206.259L232.657 142.371L232.489 141.466L231.821 142.1L184.688 186.823L212.659 128.177L213.056 127.346L212.143 127.466L147.722 135.944L204.823 104.939L205.633 104.5L204.823 104.061L147.722 73.0547L212.143 81.5342L213.056 81.6543L212.659 80.8232L184.688 22.1758L231.821 66.9004L232.489 67.5342L232.657 66.6289L244.5 2.74023L256.343 66.6289Z"
              stroke="black"/>
        <path d="M281 177L298.789 222.06L345.11 207.874L320.972 249.877L360.944 277.247L313.055 284.563L316.578 332.879L281 300L245.422 332.879L248.945 284.563L201.056 277.247L241.028 249.877L216.89 207.874L263.211 222.06L281 177Z"
              fill="#D9D9D9"/>
        <path d="M116.194 306.102L139.134 264L162.258 306.102L204.269 329.134L162.258 352.166L139.134 394.269L116.194 352.166L74 329.134L116.194 306.102Z"
              fill="#B9FF66"/>
        <circle cx="156.5" cy="186.5" r="62" fill="black" stroke="black"/>
        <ellipse cx="136" cy="173" rx="10" ry="20" fill="white"/>
        <ellipse cx="177" cy="173" rx="10" ry="20" fill="white"/>
    </g>
    <defs>
        <filter id="filter0_d_336_1755" x="0" y="0" width="502" height="402.269"
                filterUnits="userSpaceOnUse" color-interpolation-filters="sRGB">
            <feFlood flood-opacity="0" result="BackgroundImageFix"/>
            <feColorMatrix in="SourceAlpha" type="matrix"
                           values="0 0 0 0 0 0 0 0 0 0 0 0 0 0 0 0 0 0 127 0"
                           result="hardAlpha"/>
            <feOffset dy="4"/>
            <feGaussianBlur stdDeviation="2"/>
            <feComposite in2="hardAlpha" operator="out"/>
            <feColorMatrix type="matrix"
                           values="0 0 0 0 0 0 0 0 0 0 0 0 0 0 0 0 0 0 0.25 0"/>
            <feBlend mode="normal" in2="BackgroundImageFix"
                     result="effect1_dropShadow_336_1755"/>
            <feBlend mode="normal" in="SourceGraphic"
                     in2="effect1_dropShadow_336_1755" result="shape"/>
        </filter>
    </defs>
</svg>
